<svg width="144" height="48" viewBox="0 0 144 48" fill="none" xmlns="http://www.w3.org/2000/svg">
<path d="M26.4004 7.20007H12.0004C6.69846 7.20007 2.40039 11.4981 2.40039 16.8001V31.2001C2.40039 36.502 6.69846 40.8001 12.0004 40.8001H26.4004C31.7023 40.8001 36.0004 36.502 36.0004 31.2001V16.8001C36.0004 11.4981 31.7023 7.20007 26.4004 7.20007Z" fill="#7D4DCA"/>
<path d="M12 18H26.4M12 24H21.6M12 30H15.6" stroke="white" stroke-width="3" stroke-linecap="round"/>
<path d="M50.4192 32V22.4744H48.0756V19.6268H51.528L50.4192 20.6348V19.8536C50.4192 18.0224 50.9064 16.6532 51.8808 15.746C52.8552 14.822 54.3756 14.3012 56.442 14.1836L57.828 14.0828L58.0548 16.8548L56.8704 16.9304C56.2152 16.964 55.6944 17.0732 55.308 17.258C54.9216 17.426 54.6444 17.6696 54.4764 17.9888C54.3084 18.2912 54.2244 18.6944 54.2244 19.1984V20.0552L53.7456 19.6268H57.45V22.4744H54.2244V32H50.4192ZM63.6996 32.2772C62.1036 32.2772 60.936 31.8656 60.1968 31.0424C59.4576 30.2024 59.088 28.9592 59.088 27.3128V14.234H62.8932V27.1616C62.8932 27.5816 62.9604 27.9512 63.0948 28.2704C63.2292 28.5728 63.4224 28.7996 63.6744 28.9508C63.9432 29.102 64.2792 29.1776 64.6824 29.1776C64.8504 29.1776 65.0268 29.1692 65.2116 29.1524C65.3964 29.1356 65.5728 29.102 65.7408 29.0516L65.6904 32C65.3712 32.084 65.0436 32.1512 64.7076 32.2016C64.3884 32.252 64.0524 32.2772 63.6996 32.2772ZM70.6755 32.2772C69.7683 32.2772 68.9535 32.1008 68.2311 31.748C67.5087 31.3952 66.9459 30.9164 66.5427 30.3116C66.1395 29.7068 65.9379 29.0264 65.9379 28.2704C65.9379 27.3632 66.1731 26.6492 66.6435 26.1284C67.1139 25.5908 67.8783 25.2128 68.9367 24.9944C69.9951 24.7592 71.3979 24.6416 73.1451 24.6416H74.4807V26.6072H73.1703C72.5151 26.6072 71.9607 26.6324 71.5071 26.6828C71.0703 26.7332 70.7091 26.8256 70.4235 26.96C70.1379 27.0776 69.9279 27.2288 69.7935 27.4136C69.6759 27.5984 69.6171 27.8336 69.6171 28.1192C69.6171 28.5896 69.7767 28.976 70.0959 29.2784C70.4319 29.5808 70.9107 29.732 71.5323 29.732C72.0195 29.732 72.4479 29.6228 72.8175 29.4044C73.2039 29.1692 73.5063 28.8584 73.7247 28.472C73.9431 28.0688 74.0523 27.6152 74.0523 27.1112V24.2132C74.0523 23.474 73.8843 22.9532 73.5483 22.6508C73.2123 22.3316 72.6411 22.172 71.8347 22.172C71.1627 22.172 70.4487 22.2812 69.6927 22.4996C68.9535 22.7012 68.2143 23.012 67.4751 23.432L66.4419 20.8868C66.8787 20.5844 67.4079 20.324 68.0295 20.1056C68.6679 19.8704 69.3315 19.694 70.0203 19.5764C70.7091 19.442 71.3643 19.3748 71.9859 19.3748C73.2795 19.3748 74.3379 19.568 75.1611 19.9544C76.0011 20.324 76.6311 20.9036 77.0511 21.6932C77.4711 22.466 77.6811 23.4656 77.6811 24.692V32H74.1279V29.5052H74.3043C74.2035 30.0764 73.9851 30.572 73.6491 30.992C73.3299 31.3952 72.9183 31.7144 72.4143 31.9496C71.9103 32.168 71.3307 32.2772 70.6755 32.2772ZM85.4588 36.8132C84.2828 36.8132 83.174 36.6872 82.1324 36.4352C81.0908 36.1832 80.1836 35.7884 79.4108 35.2508L80.444 32.6552C80.8976 32.924 81.3848 33.1592 81.9056 33.3608C82.4432 33.5624 82.9892 33.7136 83.5436 33.8144C84.098 33.9152 84.6272 33.9656 85.1312 33.9656C86.2064 33.9656 87.0128 33.722 87.5504 33.2348C88.088 32.7476 88.3568 32 88.3568 30.992V29.0768H88.5836C88.3316 29.8496 87.8108 30.4796 87.0212 30.9668C86.2316 31.454 85.358 31.6976 84.4004 31.6976C83.2916 31.6976 82.3256 31.4456 81.5024 30.9416C80.6792 30.4208 80.0408 29.6984 79.5872 28.7744C79.1336 27.8336 78.9068 26.75 78.9068 25.5236C78.9068 24.2804 79.1336 23.2052 79.5872 22.298C80.0408 21.374 80.6792 20.66 81.5024 20.156C82.3256 19.6352 83.2916 19.3748 84.4004 19.3748C85.3916 19.3748 86.2652 19.6184 87.0212 20.1056C87.794 20.576 88.3064 21.1976 88.5584 21.9704H88.3568V19.6268H92.0612V30.5636C92.0612 31.9412 91.8092 33.092 91.3052 34.016C90.8012 34.9568 90.0536 35.654 89.0624 36.1076C88.088 36.578 86.8868 36.8132 85.4588 36.8132ZM85.5344 28.85C86.3744 28.85 87.0464 28.556 87.5504 27.968C88.0712 27.38 88.3316 26.5652 88.3316 25.5236C88.3316 24.482 88.0712 23.6756 87.5504 23.1044C87.0464 22.5164 86.3744 22.2224 85.5344 22.2224C84.6776 22.2224 83.9972 22.5164 83.4932 23.1044C82.9892 23.6756 82.7372 24.482 82.7372 25.5236C82.7372 26.5652 82.9892 27.38 83.4932 27.968C83.9972 28.556 84.6776 28.85 85.5344 28.85ZM94.0579 32V19.6268H97.7875V21.9452H97.5103C97.7287 21.4244 98.0311 20.9708 98.4175 20.5844C98.8039 20.198 99.2659 19.904 99.8035 19.7024C100.341 19.484 100.929 19.3748 101.568 19.3748C102.525 19.3748 103.323 19.6016 103.962 20.0552C104.6 20.5088 105.054 21.206 105.322 22.1468H104.97C105.339 21.29 105.902 20.618 106.658 20.1308C107.431 19.6268 108.313 19.3748 109.304 19.3748C110.262 19.3748 111.043 19.568 111.648 19.9544C112.269 20.324 112.731 20.8952 113.034 21.668C113.336 22.424 113.487 23.39 113.487 24.566V32H109.682V24.692C109.682 23.8688 109.548 23.2724 109.279 22.9028C109.027 22.5164 108.59 22.3232 107.968 22.3232C107.498 22.3232 107.086 22.4408 106.734 22.676C106.381 22.8944 106.112 23.222 105.927 23.6588C105.759 24.0788 105.675 24.5996 105.675 25.2212V32H101.87V24.692C101.87 23.8688 101.736 23.2724 101.467 22.9028C101.215 22.5164 100.778 22.3232 100.156 22.3232C99.6691 22.3232 99.2575 22.4408 98.9215 22.676C98.5855 22.8944 98.3251 23.222 98.1403 23.6588C97.9555 24.0788 97.8631 24.5996 97.8631 25.2212V32H94.0579ZM115.243 17.2328V13.6796H119.35V17.2328H115.243ZM115.394 32V19.6268H119.199V32H115.394ZM121.129 32V19.6268H124.859V21.9452H124.581C124.968 21.122 125.539 20.492 126.295 20.0552C127.068 19.6016 127.941 19.3748 128.916 19.3748C129.907 19.3748 130.722 19.568 131.36 19.9544C131.999 20.324 132.477 20.8952 132.797 21.668C133.116 22.424 133.275 23.39 133.275 24.566V32H129.47V24.7424C129.47 24.1712 129.395 23.7092 129.243 23.3564C129.109 22.9868 128.899 22.7264 128.613 22.5752C128.345 22.4072 128 22.3232 127.58 22.3232C127.043 22.3232 126.572 22.4408 126.169 22.676C125.783 22.8944 125.48 23.2136 125.262 23.6336C125.043 24.0536 124.934 24.5408 124.934 25.0952V32H121.129ZM141.181 32.2772C139.417 32.2772 138.107 31.8488 137.25 30.992C136.393 30.1352 135.965 28.8752 135.965 27.212V22.4744H133.621V19.6268H135.965V15.998H139.77V19.6268H143.424V22.4744H139.77V27.0608C139.77 27.7664 139.93 28.2956 140.249 28.6484C140.585 29.0012 141.114 29.1776 141.837 29.1776C142.055 29.1776 142.282 29.1524 142.517 29.102C142.769 29.0516 143.038 28.9844 143.323 28.9004L143.878 31.6724C143.525 31.8572 143.105 32 142.618 32.1008C142.131 32.2184 141.652 32.2772 141.181 32.2772Z" fill="white"/>
</svg>
